<svg version="1.1" xmlns="http://www.w3.org/2000/svg" xmlns:xlink="http://www.w3.org/1999/xlink" width="59.090003967285156" height="32.63999938964844"><defs></defs><g transform="translate(-30.263994216918945,24.479999542236328)"><rect fill="rgb(255,255,255)" stroke="none" x="0" y="0" width="59.090003967285156" height="32.63999938964844" fill-opacity="0" transform="translate(30.263994216918945,-24.479999542236328)"></rect><g transform="translate(29.543993949890137,16.31999969482422) rotate(0,0,0) translate(-29.543993949890137,-16.31999969482422) matrix(1,0,0,1,29.543993949890137,16.31999969482422)"><path fill="rgb(0,0,0)" fill-opacity="1" d="M22.80-23.23L22.27-23.14Q22.13-22.90 21.86-22.82Q21.60-22.75 21.36-22.61L21.36-22.61Q21.12-22.46 20.88-22.22Q20.64-21.98 20.40-21.84L20.40-21.84Q21.07-19.25 21.46-17.33Q21.84-15.41 21.94-14.45L21.94-14.45Q22.03-13.49 22.08-12.34Q22.13-11.18 22.13-10.22L22.13-10.22Q22.13-9.50 22.06-9.05Q21.98-8.59 21.84-8.16L21.84-8.16Q21.26-8.88 20.90-9.70Q20.54-10.51 20.16-11.33L20.16-11.33Q19.34-13.78 18.60-16.46Q17.86-19.15 17.14-21.94L17.14-21.94Q15.79-21.98 14.26-21.98Q12.72-21.98 11.18-21.98Q9.65-21.98 8.28-21.96Q6.91-21.94 5.90-21.89L5.90-21.89Q5.81-21.60 5.71-21.22L5.71-21.22Q5.42-20.59 5.23-19.85Q5.04-19.10 4.90-18.26Q4.75-17.42 4.56-16.51Q4.37-15.60 4.08-14.69L4.08-14.69Q4.70-14.69 5.30-15.10Q5.90-15.50 6.53-15.50L6.53-15.50Q6.10-15.07 5.78-14.54Q5.47-14.02 5.23-13.15L5.23-13.15Q5.18-12.91 4.94-12.65Q4.70-12.38 4.61-12.24L4.61-12.24Q4.51-12.05 4.42-11.83Q4.32-11.62 4.18-11.52L4.18-11.52Q3.84-11.33 3.60-11.30Q3.36-11.28 3.26-11.42L3.26-11.42Q2.88-12.00 2.76-12.65Q2.64-13.30 2.54-14.02L2.54-14.02Q2.54-15.31 2.88-17.38Q3.22-19.44 3.74-21.79L3.74-21.79Q3.36-21.89 2.98-22.15Q2.59-22.42 2.30-22.51L2.30-22.51Q1.78-22.75 1.44-22.78Q1.10-22.80 0.72-23.14L0.72-23.14L3.65-23.90Q3.89-23.90 4.27-24.00L4.27-24.00Q4.85-26.26 5.42-28.32Q6.00-30.38 6.53-31.82L6.53-31.82Q6.91-32.93 7.46-34.37Q8.02-35.81 8.76-37.13Q9.50-38.45 10.44-39.41Q11.38-40.37 12.48-40.61L12.48-40.61Q12.82-40.70 13.15-40.75Q13.49-40.80 13.87-40.80L13.87-40.80Q14.26-40.80 14.45-40.44Q14.64-40.08 15.02-39.55L15.02-39.55Q15.26-39.12 15.48-38.81Q15.70-38.50 15.94-37.54L15.94-37.54Q17.09-34.03 18.10-30.50Q19.10-26.98 19.87-23.86L19.87-23.86L22.80-23.23ZM12.48-38.54L12.48-38.54Q11.66-37.44 10.94-36.12Q10.22-34.80 9.50-33.10Q8.78-31.39 8.06-29.21Q7.34-27.02 6.58-24.29L6.58-24.29Q9.07-24.58 11.57-24.62Q14.06-24.67 16.51-24.43L16.51-24.43Q15.50-28.32 14.54-31.99Q13.58-35.66 12.48-38.54ZM29.09-21.07L29.09-21.07Q29.90-21.89 30.74-22.82Q31.58-23.76 32.50-24.62Q33.41-25.49 34.37-26.18Q35.33-26.88 36.38-27.31L36.38-27.31Q36.62-27.41 36.84-27.36Q37.06-27.31 37.30-27.41L37.30-27.41Q37.68-27.41 37.97-27.41Q38.26-27.41 38.50-27.22L38.50-27.22Q39.17-26.78 39.58-25.99Q39.98-25.20 40.27-24.24L40.27-24.24Q40.46-23.71 40.49-23.23Q40.51-22.75 40.75-22.13L40.75-22.13Q41.04-21.22 41.40-20.28Q41.76-19.34 41.66-18.48L41.66-18.48Q41.62-18.24 41.52-18.07Q41.42-17.90 41.28-17.66L41.28-17.66Q41.18-17.47 40.94-17.18Q40.70-16.90 40.46-16.75L40.46-16.75Q40.22-16.56 40.15-16.44Q40.08-16.32 39.70-16.18L39.70-16.18Q39.07-17.09 38.74-18.14Q38.40-19.20 38.16-20.35Q37.92-21.50 37.73-22.70Q37.54-23.90 37.25-25.15L37.25-25.15Q37.15-25.49 36.65-25.54Q36.14-25.58 35.50-25.22Q34.85-24.86 34.13-24.10Q33.41-23.33 32.83-22.13L32.83-22.13Q32.45-21.26 32.11-20.33Q31.78-19.39 31.37-18.46Q30.96-17.52 30.41-16.63Q29.86-15.74 29.09-15.02L29.09-15.02Q28.85-14.78 28.75-14.98Q28.66-15.17 28.27-15.31L28.27-15.31Q27.98-15.41 27.96-15.50Q27.94-15.60 27.79-16.08L27.79-16.08Q27.50-17.09 27.19-18.38Q26.88-19.68 26.52-21.12Q26.16-22.56 25.78-24.02Q25.39-25.49 25.01-26.78L25.01-26.78L24.72-27.65Q24.82-27.84 25.08-27.98Q25.34-28.13 25.63-28.22L25.63-28.22Q25.92-28.32 26.26-28.18Q26.59-28.03 26.78-28.03L26.78-28.03Q27.31-28.03 27.72-27.36Q28.13-26.69 28.42-25.66Q28.70-24.62 28.87-23.40Q29.04-22.18 29.09-21.07ZM55.73-29.33L55.73-29.33Q56.06-28.99 56.35-28.58Q56.64-28.18 56.83-27.74L56.83-27.74Q57.22-26.83 57.24-25.94Q57.26-25.06 56.54-23.81L56.54-23.81Q55.73-22.46 54.46-21.55Q53.18-20.64 51.70-20.40L51.70-20.40Q50.64-20.21 49.58-20.42Q48.53-20.64 47.57-21.36L47.57-21.36Q47.28-21.12 47.11-20.66Q46.94-20.21 46.99-19.82L46.99-19.82Q47.09-19.15 47.50-18.36Q47.90-17.57 48.38-17.28L48.38-17.28Q49.20-16.94 50.66-17.23Q52.13-17.52 53.78-18.12Q55.44-18.72 57.05-19.46Q58.66-20.21 59.81-20.74L59.81-20.74Q59.81-20.45 59.69-20.35Q59.57-20.26 59.38-20.02L59.38-20.02Q59.14-19.78 58.85-19.44Q58.56-19.10 58.18-18.86L58.18-18.86Q57.70-18.58 57.46-18.12Q57.22-17.66 56.54-17.28L56.54-17.28Q55.63-16.80 54.70-16.30Q53.76-15.79 52.85-15.38Q51.94-14.98 51.00-14.76Q50.06-14.54 49.15-14.64L49.15-14.64Q48.53-14.74 48.12-14.98Q47.71-15.22 47.14-15.70L47.14-15.70Q46.85-15.94 46.46-16.18Q46.08-16.42 45.89-16.66L45.89-16.66Q45.07-17.86 44.78-19.22Q44.50-20.59 44.66-21.96Q44.83-23.33 45.36-24.65Q45.89-25.97 46.75-27.07L46.75-27.07Q47.23-27.70 47.93-28.34Q48.62-28.99 49.46-29.50Q50.30-30.00 51.24-30.29Q52.18-30.58 53.14-30.53L53.14-30.53Q53.52-30.48 53.83-30.31Q54.14-30.14 54.53-29.95L54.53-29.95Q54.77-29.86 55.13-29.69Q55.49-29.52 55.73-29.33ZM54.34-26.50L54.34-26.50Q54.24-26.93 53.81-27.26Q53.38-27.60 52.85-27.82Q52.32-28.03 51.79-28.08Q51.26-28.13 51.02-28.03L51.02-28.03Q50.64-27.89 50.14-27.53Q49.63-27.17 49.18-26.69Q48.72-26.21 48.31-25.66Q47.90-25.10 47.71-24.62L47.71-24.62Q47.62-24.48 47.54-24.17Q47.47-23.86 47.57-23.71L47.57-23.71Q48.14-22.99 49.30-22.99L49.30-22.99Q50.40-22.99 51.67-23.52Q52.94-24.05 53.47-24.62L53.47-24.62Q53.52-24.72 53.69-24.96Q53.86-25.20 54.00-25.49Q54.14-25.78 54.26-26.06Q54.38-26.35 54.34-26.50Z"></path></g></g></svg>